<svg xmlns="http://www.w3.org/2000/svg" viewBox="0 0 200 200">
  <defs>
    <linearGradient id="g" x1="0" y1="0" x2="1" y2="1">
      <stop offset="0" stop-color="#6366f1"/>
      <stop offset="0.55" stop-color="#7c5cf0"/>
      <stop offset="1" stop-color="#8b5cf6"/>
    </linearGradient>
  </defs>
  <!-- Filled tile: a tab favicon renders at 16px against unknown browser
       chrome, so it needs its own background to stay visible in light and dark. -->
  <rect width="200" height="200" rx="48" fill="url(#g)"/>
  <!-- Compact crest geometry, matching GodeyeEmblem variant="compact" but
       scaled in from the tile edges. -->
  <g transform="translate(100 100) scale(0.8) translate(-100 -100)"
     stroke="#ffffff" fill="none" stroke-linejoin="round" stroke-linecap="round">
    <g stroke-width="5">
      <path d="M100 6 L100 18 M166.5 44.5 L158 53 M194 100 L182 100 M166.5 155.5 L158 147"/>
      <path d="M100 194 L100 182 M33.5 155.5 L42 147 M6 100 L18 100 M33.5 44.5 L42 53"/>
    </g>
    <circle cx="100" cy="100" r="76" stroke-width="4"/>
    <path d="M100 30 L166 148 L34 148 Z" stroke-width="7"/>
    <path d="M100 48 L150 140 L50 140 Z" stroke-width="3.5" opacity="0.8"/>
    <path d="M100 30 L100 48" stroke-width="3"/>
    <g transform="translate(100 108) scale(1.35) translate(-50 -57)">
      <path d="M27 57 Q50 39 73 57 Q50 75 27 57 Z" stroke-width="5.5"/>
      <circle cx="50" cy="57" r="6" fill="#ffffff" stroke="none"/>
    </g>
  </g>
</svg>
